<svg width="200" height="114" viewBox="0 0 200 114" fill="none" xmlns="http://www.w3.org/2000/svg">
<g clip-path="url(#clip0_97_29)">
<path fill-rule="evenodd" clip-rule="evenodd" d="M97.6227 38.8882L95.8568 39.624L95.4153 39.0806L97.0227 38.3448L97.6227 38.8882ZM95.2115 40.2579L93.8418 42.4652L91.5778 43.5972L90.9439 42.8614L93.2079 41.6163L93.9437 39.4655L95.2115 40.2352V40.2579ZM94.8832 44.9896L93.955 43.6199L93.5135 43.518L94.1588 45.5329L94.8946 44.9896H94.8832ZM96.0152 53.7851L91.5778 52.8456L91.442 51.2608L95.5964 52.3022L96.0152 53.7851ZM102.343 62.3769L100.781 64.2787L100.034 64.1768L99.8413 63.0448L101.754 60.9393L100.973 59.8073L101.404 59.1621L102.151 60.2375L102.343 62.3656V62.3769ZM90.4006 51.0571L89.6082 52.472L88.8837 52.3702L89.6082 50.6948L90.4458 50.9891L90.4006 51.0571ZM88.8384 50.7627L87.8649 49.3817L86.4839 50.7627L86.382 52.0306L87.9555 52.4381L88.8384 50.7627ZM102.422 34.4508V30.3982L99.4678 30.7378L98.483 30.1945L94.8832 29.8322L94.272 28.7003L93.0041 29.9794L85.4877 29.1983L87.9102 27.8286L84.6161 27.0928L79.8391 28.904L79.4429 29.7417L76.794 29.0964L75.3224 30.3756L75.7186 31.1114L73.3075 29.6398L74.4395 28.3607L76.545 27.6135L76.2167 26.8891L73.9527 27.8286L72.4472 29.4587L73.8169 31.0321H71.8246L68.7456 33.0471L67.7042 31.9717L69.2889 32.1075L70.0134 30.9756L65.9949 30.036L63.3913 30.7378L60.9688 33.9866L60.8669 35.2545L62.2593 35.062L62.5649 35.8997L63.9799 35.4922L64.0818 34.4168L63.5837 33.9866L64.9534 32.2094L65.5873 32.8547L64.5233 33.6923L64.9534 34.6319L66.4363 34.1225L66.8325 34.6319L64.5233 35.4922L64.4214 36.1035L62.2593 36.228L61.8178 35.6054L61.1952 35.8997L61.5235 36.7374L60.3915 37.8128L59.7576 37.9146L58.6822 38.7523L59.3274 39.3862L59.0105 40.122L57.3125 40.0201L58.1841 42.3747L60.5953 40.1107L61.0254 40.3484L61.7612 39.7145L63.0404 40.6541L63.3913 41.9332L64.1271 40.8691L62.9951 39.2844L63.2668 39.024L64.6704 40.6654L64.8742 41.9332L66.0062 42.7822L65.7911 41.1521L67.0589 42.8388L67.9985 41.5483V42.8388L67.5683 43.269L65.3043 43.1671L64.6591 42.635L63.8214 43.3708L62.1121 42.8388L62.2593 42.2841L61.7272 41.6842L59.6104 41.8879L55.7843 45.1707L55.8862 48.4195L57.5955 49.9364L60.55 50.0383L62.0216 50.9778L61.3876 51.408L62.8932 53.1852V54.4643L62.3612 55.2001L64.1384 60.0677L66.142 60.1922L68.7003 57.1132L68.8022 55.9812L69.7757 55.2454L69.5833 53.604L69.1871 53.1626L72.4472 48.3742L70.636 48.5214L69.504 47.6498L67.9192 44.4802L68.0098 43.6199H68.655L70.919 48.0799L73.183 47.2309L74.1225 46.0989L73.183 45.1594L72.3114 45.4537L71.4737 44.084L76.5676 45.0235L76.4771 46.4272L77.077 46.6423L77.96 49.0761L79.3523 48.6686V47.3328L81.1296 45.9631L81.356 44.9896H81.854V46.1216L83.6652 50.0496L82.3974 49.9477L85.4877 53.3437L87.7517 53.7512L87.6498 53.106L85.7368 52.3702L85.3066 51.091L84.5708 51.0005L84.3671 50.3552L85.2047 50.5929L85.6349 50.1515L84.3671 49.3138L84.0388 47.9441L84.3671 47.8422L85.0123 49.0874L86.5857 48.1478L85.5783 46.6989L89.178 44.5481L88.9742 41.5936L89.8119 41.1521L90.2534 42.635L91.4873 41.7974L91.1929 40.9484L93.106 39.6806L93.4003 38.707L94.3738 38.6052L94.272 36.6242L92.823 36.9751L93.0607 36.1035L95.087 35.062L98.483 34.7338L97.5095 36.0016L97.8604 38.1071L99.6263 35.8431L99.5244 34.779L102.479 34.4621L102.422 34.4508ZM97.2265 58.132L95.4153 61.528L93.955 61.4034L91.0911 59.264L90.9892 59.8073L87.4913 60.5431L87.9102 59.0715L87.1631 58.7772V57L91.691 54.0455L93.8078 55.4265L93.9097 54.2945L94.5436 54.1927L97.2265 58.132ZM59.9953 36.7374L59.8934 37.6203H58.4218L58.8633 36.7374L57.8898 35.7073L58.6256 34.9602L59.0557 36.0016L59.9953 36.7374ZM57.0408 32.7528L55.1277 34.1225L53.9958 32.4019L56.1013 31.8811L57.0408 32.7528ZM63.0177 41.9106L62.3838 41.6729L62.78 41.0276L63.0177 41.9106ZM56.5993 24.9986L55.3655 26.074L55.0825 28.7003L53.2034 31.6774L50.1583 32.6056L49.4225 34.4168L48.0075 34.3602L46.4114 31.8811L45.7662 28.6097L44.4984 27.6362L43.106 28.089L42.3815 27.1155L44.6455 24.2628L54.1769 23.1309L56.4409 25.0439L56.5993 24.9986ZM58.0709 37.077L57.437 37.8128L56.7012 37.1675L57.3125 36.1035L58.0709 37.077ZM72.1416 54.6568L71.202 57.7018L69.821 56.7623L70.1832 55.3926L71.5529 54.3172L72.0963 54.6568H72.1416ZM42.0759 45.3179L41.2269 44.8877V44.1519L42.0759 45.2839V45.3179ZM45.1549 47.3328L44.6229 47.5479L41.974 46.6083L42.1665 46.065L45.1549 47.3328ZM41.442 45.7593L39.7666 45.2613L39.5968 46.065L41.2269 46.3933L41.442 45.7593ZM51.4035 53.1399L48.5509 51.2608H47.4189L47.2151 49.7553H45.6643L45.5285 48.4422L43.5588 48.3742L42.5174 47.9441L41.0345 48.578H39.5289L39.3138 47.2988L38.4875 47.2309L38.6912 46.0989L38.1479 45.7933L37.3102 46.2914H36.9027L36.0311 45.4537L36.9027 43.8802H39.1667L39.8006 44.8311H40.5477L40.1628 43.4161L41.6797 42.1483L41.5439 41.3106L42.1665 40.6767L42.8117 40.7786V39.6466L46.5359 37.5298L43.8871 34.3602L40.6043 33.8395V35.4016L40.8986 35.7525L40.4006 37.3147L39.0195 35.7525L37.5479 35.2998L36.7782 34.6772L37.8536 33.1942L39.9591 33.3867L39.6195 32.3113L40.0157 31.1793H40.9892L40.7515 32.8547L43.5022 33.3414L44.9738 31.7793L40.3326 27.9871L43.8305 24.0591L39.9025 23.8553L29.7146 27.7494L29.2731 29.5492L31.1748 30.9642L20.9869 29.8888L18.8927 30.9642L19.4248 34.5413L20.7039 35.5148L18.8927 37.2921L23.998 34.7564L26.1035 35.0847L27.6883 36.76L27.0431 36.6242L27.5864 37.6882L28.3109 37.4845L29.4316 39.0806L29.2618 41.1521L32.454 45.3745H33.586L34.5255 46.5065L37.514 48.1705L38.3403 48.0686L38.9856 49.3591H40.4685V50.4231L39.8232 51.374L41.2948 55.053L42.6759 55.6869C41.9891 59.7168 41.6457 61.7317 41.6457 61.7317V64.9239L43.3211 66.803L43.955 66.0672L43.2079 65.1277L44.0456 64.29C44.1402 63.8249 44.0723 63.3413 43.8531 62.9203L50.2941 56.0378L50.5319 54.1247L51.3695 53.1512L51.4035 53.1399ZM18.5758 32.9452L15.3836 32.8547L14.6478 33.149L15.4741 33.9866L13.7422 34.4168V30.3982L18.1117 32.0962L18.655 32.9339L18.5758 32.9452ZM23.0019 46.3933L22.5943 47.1404L21.1228 46.1669L20.1493 46.6989L17.8287 45.3179L18.0324 44.6953L20.6813 45.7593L21.7227 45.2273L23.0019 46.3593V46.3933ZM17.0929 43.9482L15.9609 44.6953L15.327 43.3142L17.1382 43.9482H17.0929ZM29.058 57.6113L28.4128 58.2339L27.4732 57.6113L28.1185 56.966L29.058 57.6113ZM27.3713 56.6717L26.6469 57.0679L25.6734 56.434L26.4092 55.4944L27.3713 56.6264V56.6717ZM75.0281 40.4277L74.4508 40.4956L74.3829 39.6579L74.9149 39.59L75.0281 40.4277ZM73.1151 41.8087L72.2321 42.0351L72.1076 39.7711L72.6962 39.2957L73.0019 39.6353L72.4359 40.405L73.1151 41.7861V41.8087ZM69.8436 40.3937L67.9192 40.2239H67.2627L66.425 40.8691L66.2552 40.122L67.1948 38.99L67.7268 39.6919L68.3607 39.624V39.058L69.0965 39.1825L69.8436 40.3937Z" fill="#046FAF"/>
<path fill-rule="evenodd" clip-rule="evenodd" d="M55.9995 0.887207C65.1761 0.899454 74.2088 3.16799 82.3022 7.49302C90.3956 11.8181 97.3013 18.0669 102.411 25.6891C96.8917 18.2295 89.564 12.2978 81.1186 8.4527C72.6731 4.60764 63.3878 2.97585 54.1374 3.71104C44.887 4.44623 35.976 7.5242 28.2439 12.655C20.5118 17.7858 14.2131 24.8005 9.94125 33.0383C5.66936 41.2761 3.56489 50.4658 3.8261 59.7417C4.0873 69.0176 6.70558 78.0743 11.4343 86.0587C16.163 94.043 22.8464 100.692 30.855 105.38C38.8636 110.067 47.9337 112.639 57.2108 112.852H55.9656C41.2589 112.643 27.2255 106.654 16.8995 96.1803C6.57348 85.7064 0.784668 71.5892 0.784668 56.8811C0.784668 42.173 6.57348 28.0558 16.8995 17.5819C27.2255 7.10798 41.2589 1.119 55.9656 0.909847L55.9995 0.887207Z" fill="#046FAF"/>
<path d="M35.5896 71.8405H44.7474C44.6364 73.0445 44.249 74.2067 43.6154 75.2365C43.303 75.496 42.9415 75.6899 42.5525 75.8065C42.1636 75.9232 41.755 75.9603 41.3514 75.9156H37.446C36.4445 75.8537 35.442 76.0201 34.5142 76.4024C33.8268 76.7975 33.2865 77.4054 32.9747 78.1343C32.5687 78.992 32.2134 79.8727 31.9106 80.7719C31.5257 81.9039 31.1409 83.2057 30.7786 84.5867C30.3032 86.4318 29.9862 87.7563 29.8504 88.5713C29.7239 89.2853 29.6558 90.0084 29.6466 90.7334C29.5836 91.2136 29.6429 91.702 29.819 92.1532C29.9951 92.6044 30.2824 93.0038 30.6541 93.3143C31.3333 93.7445 32.9181 93.9709 35.4198 93.9709C36.7618 94.0236 38.105 93.9018 39.4157 93.6087C39.7665 93.526 40.0963 93.3717 40.3847 93.1554C40.673 92.9392 40.9135 92.6657 41.091 92.3521H41.974C41.7357 93.4406 41.4218 94.511 41.0344 95.5557C40.8383 96.1443 40.5135 96.6818 40.0836 97.1291C39.4431 97.5613 38.7027 97.8224 37.9328 97.8876C36.3166 98.0639 34.6907 98.1357 33.0652 98.1027C31.628 98.1386 30.1901 98.0668 28.7637 97.8876C27.9746 97.7712 27.2098 97.5265 26.4997 97.1631C25.4457 96.654 24.5784 95.8263 24.0206 94.7972C23.4393 93.604 23.1594 92.2863 23.2056 90.9598C23.209 90.4451 23.243 89.931 23.3075 89.4203C23.3754 88.8543 23.4886 88.2091 23.6358 87.4733C23.998 85.7866 24.3942 84.2018 24.8357 82.7189C25.2124 81.4058 25.6583 80.1135 26.1714 78.8475C26.9483 76.7284 28.2583 74.8453 29.9749 73.38C31.6309 72.2735 33.6008 71.7334 35.5896 71.8405Z" fill="#C02128"/>
<path d="M45.0759 77.0588H49.8076C50.431 76.9999 51.0554 77.1601 51.5735 77.5116C52.0187 78.0188 52.2956 78.6516 52.3659 79.3228L54.528 89.5107L60.5615 79.4926C60.6432 79.3779 60.708 79.2521 60.7539 79.119C60.7699 79.0102 60.7699 78.8996 60.7539 78.7908C60.7625 78.6595 60.7391 78.5282 60.6859 78.408C60.6327 78.2877 60.5512 78.1821 60.4483 78.1002C60.15 77.921 59.8113 77.8197 59.4635 77.8059L59.6672 77.0814H64.9423C65.4308 77.0519 65.9176 77.1618 66.346 77.3984C66.5 77.4899 66.6266 77.6213 66.7122 77.7787C66.7979 77.936 66.8395 78.1136 66.8327 78.2927C66.8374 78.4881 66.8107 78.683 66.7535 78.87C66.6937 79.0502 66.6099 79.2215 66.5044 79.3794L52.7621 100.763L52.6828 100.865C52.4404 101.201 52.2778 101.588 52.2074 101.997C52.2052 102.12 52.2316 102.243 52.2846 102.355C52.3377 102.467 52.4158 102.565 52.513 102.642C52.7732 102.814 53.0735 102.915 53.3847 102.936L53.1356 103.615H47.1361C46.7448 103.632 46.3556 103.55 46.0041 103.378C45.8769 103.312 45.7717 103.21 45.7014 103.086C45.631 102.961 45.5985 102.819 45.6079 102.676C45.6165 102.491 45.6627 102.31 45.7437 102.144C45.8688 101.868 46.0165 101.603 46.1852 101.351L50.7132 94.8084L46.672 79.5265C46.5721 79.0749 46.3621 78.6549 46.0607 78.304C45.7515 78.0041 45.3552 77.8099 44.9287 77.7493L45.0759 77.0588Z" fill="#C02128"/>
<path d="M69.8889 71.8401H75.8432C76.2418 71.8016 76.6415 71.9015 76.9752 72.1231C77.1 72.2226 77.1991 72.3506 77.2641 72.4964C77.3291 72.6422 77.3581 72.8014 77.3487 72.9608C77.3627 73.1341 77.3627 73.3082 77.3487 73.4815C77.3216 73.6312 77.2838 73.7787 77.2355 73.923L75.6847 79.7414C76.4713 78.8185 77.4234 78.0506 78.492 77.4774C79.5239 77.0343 80.6412 76.8256 81.7635 76.8661C83.4048 76.7641 85.0414 77.1292 86.4839 77.9189C86.9991 78.2452 87.4191 78.7017 87.7014 79.2424C87.9836 79.783 88.1181 80.3886 88.0913 80.9979C88.0921 81.4255 88.0656 81.8528 88.0121 82.2771C87.9464 82.7756 87.8558 83.2705 87.7404 83.76C87.2649 85.9334 86.7782 87.8578 86.2801 89.5558C85.9917 90.7155 85.6132 91.8509 85.1481 92.9517C84.4914 94.5389 83.3859 95.9 81.9672 96.8684C80.3845 97.6386 78.6305 97.9894 76.8733 97.8872H68.0777C67.3082 97.9425 66.5358 97.8305 65.8137 97.5589C65.6006 97.4614 65.4229 97.3002 65.3053 97.0974C65.1877 96.8946 65.1359 96.6604 65.1572 96.4269C65.1455 96.2876 65.1455 96.1475 65.1572 96.0081C65.1787 95.8593 65.2089 95.7119 65.2477 95.5666L71.0888 74.3192C71.0862 74.2777 71.0862 74.2361 71.0888 74.1946C71.102 74.0478 71.102 73.9 71.0888 73.7532C71.0992 73.5926 71.073 73.4317 71.0122 73.2827C70.9514 73.1337 70.8576 73.0004 70.7379 72.8929C70.4381 72.6598 70.0754 72.5218 69.6965 72.4967L69.8889 71.8401ZM74.9602 94.0498C75.9427 94.1051 76.9216 93.8897 77.7902 93.4272C78.5431 92.9203 79.1204 92.1927 79.4429 91.3443C80.046 89.9254 80.5344 88.4605 80.9032 86.9635C81.2394 85.798 81.4407 84.5978 81.5031 83.3864C81.5114 83.0518 81.4347 82.7206 81.2803 82.4237C81.1259 82.1268 80.8988 81.8738 80.6202 81.6884C79.9078 81.2277 79.0673 81.0057 78.2203 81.0545C77.323 81.0049 76.4382 81.2824 75.73 81.8356C75.0214 82.5414 74.5337 83.4382 74.3263 84.4165L71.7567 94.0498H74.9602Z" fill="#C02128"/>
<path d="M106.566 88.0165H96.1512C95.8909 88.9108 95.7097 89.6352 95.5965 90.1786C95.5017 90.5987 95.4486 91.0272 95.438 91.4577C95.4012 91.852 95.4788 92.2485 95.6615 92.5999C95.8442 92.9512 96.1242 93.2424 96.4682 93.4387C97.6224 93.9097 98.8699 94.1073 100.113 94.016C101.808 94.0873 103.505 93.9389 105.162 93.5746C105.564 93.4926 105.941 93.3151 106.26 93.057C106.579 92.7989 106.831 92.4678 106.996 92.0917H107.799C107.639 93.119 107.389 94.1304 107.052 95.1141C106.862 95.7329 106.524 96.2962 106.067 96.7555C105.5 97.2935 104.807 97.6825 104.052 97.8874C102.673 98.1531 101.268 98.2594 99.8641 98.2044H99.3887C95.4381 98.2044 92.7666 97.8082 91.3855 96.9932C90.672 96.5283 90.1009 95.8753 89.7353 95.1061C89.3697 94.337 89.2239 93.4818 89.314 92.635C89.3703 91.4881 89.5448 90.3501 89.8347 89.239C90.1894 87.7297 90.729 85.794 91.4534 83.4319C91.6811 82.6463 91.9923 81.8873 92.3817 81.1679C92.7196 80.5382 93.134 79.9527 93.6155 79.4247C94.5047 78.5054 95.6158 77.8309 96.8417 77.4663C98.5286 77.0201 100.271 76.818 102.015 76.8664C105.034 76.8664 107.23 77.2815 108.603 78.1116C109.275 78.5364 109.818 79.1358 110.175 79.8457C110.532 80.5556 110.689 81.3491 110.629 82.1415C110.623 82.8621 110.536 83.5798 110.369 84.2809C110.221 84.9567 109.997 85.6136 109.701 86.2393C109.446 86.8232 109.025 87.3192 108.49 87.6656C107.887 87.9402 107.226 88.0608 106.566 88.0165ZM104.46 84.9714C104.619 84.6028 104.755 84.2248 104.868 83.8394C104.935 83.5765 104.973 83.307 104.981 83.0357C105.007 82.6965 104.949 82.3561 104.813 82.0443C104.676 81.7325 104.466 81.4588 104.2 81.2472C103.508 80.8096 102.696 80.5998 101.879 80.6472C100.809 80.59 99.7564 80.9421 98.9359 81.6321C98.0449 82.5652 97.4162 83.7172 97.1134 84.9714H104.46Z" fill="#C02128"/>
<path d="M114.569 77.0587H120.806C121.201 77.0261 121.597 77.1171 121.938 77.3191C122.061 77.4045 122.16 77.5201 122.226 77.655C122.291 77.7898 122.321 77.9392 122.312 78.0888C122.324 78.1828 122.324 78.2779 122.312 78.3718C122.312 78.485 122.312 78.6209 122.21 78.768L121.927 80.0019C122.532 79.0925 123.3 78.3021 124.191 77.67C124.981 77.2378 125.872 77.0266 126.772 77.0587H129.964L129.511 78.9492C129.401 79.6457 129.076 80.2905 128.583 80.7943C127.981 81.1094 127.301 81.2431 126.625 81.1792H124.361C123.554 81.1368 122.756 81.3682 122.097 81.8357C121.472 82.3196 121.033 83.0028 120.852 83.7714L117.727 95.4083C117.695 95.4846 117.673 95.5644 117.659 95.646C117.607 95.827 117.572 96.0128 117.557 96.2007C117.553 96.3452 117.583 96.4887 117.647 96.6188C117.71 96.749 117.803 96.8618 117.92 96.9478C118.216 97.1363 118.565 97.2273 118.916 97.2082L118.791 97.9326H112.837C112.452 97.9589 112.072 97.8375 111.773 97.593C111.643 97.4796 111.541 97.338 111.474 97.1791C111.408 97.0202 111.378 96.8482 111.388 96.6761C111.378 96.5594 111.378 96.442 111.388 96.3252C111.409 96.1837 111.439 96.0437 111.479 95.9064L115.859 79.6397C115.859 79.4699 115.927 79.3567 115.939 79.2888V79.0737C115.945 78.9208 115.915 78.7685 115.852 78.629C115.79 78.4895 115.695 78.3666 115.576 78.27C115.238 78.0385 114.85 77.8875 114.444 77.8285L114.569 77.0587Z" fill="#C02128"/>
<path d="M131.22 77.0586H137.254C137.567 77.0492 137.872 77.163 138.103 77.3756C138.21 77.4969 138.293 77.6385 138.345 77.792C138.398 77.9455 138.419 78.108 138.408 78.2699C138.423 78.4242 138.423 78.5796 138.408 78.734C138.408 78.9038 138.329 79.0736 138.284 79.2434L133.914 95.3403C133.914 95.5101 133.846 95.6572 133.824 95.7931C133.815 95.9023 133.815 96.0121 133.824 96.1213C133.818 96.2764 133.851 96.4305 133.918 96.5704C133.985 96.7104 134.084 96.832 134.209 96.925C134.545 97.1409 134.942 97.2403 135.341 97.208L135.092 97.9325H129.16C128.752 97.9574 128.35 97.8326 128.028 97.5816C127.894 97.4804 127.785 97.3484 127.713 97.1967C127.64 97.0451 127.604 96.8782 127.609 96.71C127.602 96.5893 127.602 96.4684 127.609 96.3477C127.618 96.2991 127.618 96.2492 127.609 96.2006L132.137 79.7414C132.19 79.5908 132.228 79.4353 132.25 79.2773C132.26 79.1681 132.26 79.0583 132.25 78.949C132.257 78.8212 132.236 78.6934 132.189 78.5743C132.143 78.4551 132.071 78.3475 131.979 78.2585C131.667 78.0324 131.313 77.8707 130.937 77.7831L131.22 77.0586ZM134.141 71.5232H138.533C138.896 71.4973 139.258 71.5801 139.574 71.7609C139.686 71.8445 139.776 71.9543 139.835 72.0806C139.894 72.207 139.921 72.346 139.914 72.4854C139.919 72.5419 139.919 72.5987 139.914 72.6552C139.905 72.7707 139.882 72.8847 139.846 72.9948L139.121 75.5531H135.126C134.677 75.5826 134.23 75.4844 133.835 75.2701C133.694 75.182 133.579 75.0581 133.501 74.9109C133.424 74.7637 133.386 74.5986 133.394 74.4324C133.387 74.3193 133.387 74.2059 133.394 74.0928C133.407 73.99 133.426 73.888 133.45 73.7872L134.141 71.5232Z" fill="#C02128"/>
<path d="M158.286 95.3402C158.239 95.456 158.209 95.578 158.196 95.7025C158.185 95.8192 158.185 95.9367 158.196 96.0534C158.185 96.2118 158.212 96.3704 158.275 96.5161C158.338 96.6618 158.435 96.7904 158.558 96.8911C158.891 97.1158 159.288 97.2269 159.69 97.208L159.565 97.9325H153.792C153.388 97.9499 152.989 97.8303 152.66 97.5929C152.526 97.4817 152.42 97.3411 152.349 97.182C152.279 97.023 152.246 96.8499 152.253 96.676C152.246 96.5553 152.246 96.4344 152.253 96.3137C152.265 96.2257 152.284 96.1386 152.309 96.0534L155.785 83.0355C155.82 82.9409 155.843 82.8419 155.853 82.7412C155.861 82.5866 155.861 82.4317 155.853 82.2771C155.864 82.0286 155.807 81.7818 155.69 81.5626C155.572 81.3434 155.398 81.1601 155.185 81.0319C154.569 80.7188 153.881 80.578 153.192 80.6244C152.147 80.5889 151.113 80.8436 150.204 81.3601C149.823 81.5739 149.487 81.861 149.217 82.2049C148.947 82.5487 148.748 82.9426 148.63 83.3638L145.382 95.3855C145.382 95.3855 145.382 95.51 145.314 95.6232C145.261 95.8042 145.227 95.99 145.212 96.1779C145.207 96.3224 145.238 96.4659 145.301 96.5961C145.364 96.7262 145.458 96.839 145.574 96.925C145.871 97.1121 146.219 97.203 146.57 97.1854L146.446 97.9098H140.537C140.152 97.9317 139.773 97.8107 139.473 97.5702C139.343 97.4568 139.241 97.3152 139.174 97.1563C139.107 96.9974 139.078 96.8254 139.088 96.6533C139.078 96.5366 139.078 96.4192 139.088 96.3024C139.088 96.1666 139.088 96.0307 139.178 95.8836L143.582 79.6395C143.627 79.4735 143.661 79.3263 143.684 79.1981C143.684 79.0622 143.684 78.949 143.684 78.8471C143.687 78.7219 143.66 78.5977 143.605 78.4852C143.55 78.3728 143.468 78.2755 143.367 78.2019C143.062 77.9966 142.713 77.8684 142.348 77.8283L142.597 77.1039H148.506C148.903 77.0657 149.301 77.1613 149.638 77.3755C149.759 77.4672 149.856 77.5876 149.919 77.726C149.982 77.8643 150.01 78.0162 150 78.1679C150.01 78.2544 150.01 78.3418 150 78.4283C149.971 78.5588 149.933 78.6874 149.887 78.8132L149.604 80.047C150.499 78.9968 151.592 78.1316 152.819 77.5001C154.025 77.0068 155.32 76.7716 156.622 76.8096C158.092 76.738 159.557 77.0255 160.89 77.6472C161.342 77.8338 161.73 78.1465 162.009 78.5479C162.288 78.9494 162.446 79.4226 162.463 79.9112C162.473 80.028 162.473 80.1454 162.463 80.2621C162.44 80.4053 162.402 80.5456 162.35 80.681L158.286 95.3402Z" fill="#C02128"/>
<path d="M174.689 71.0818H182.013C181.898 72.0829 181.545 73.0418 180.983 73.8779C180.405 74.3191 179.678 74.5181 178.956 74.4325H176.896C176.645 74.4112 176.392 74.4414 176.152 74.5212C175.913 74.601 175.692 74.7287 175.504 74.8967C175.062 75.5446 174.772 76.2835 174.655 77.0588H179.726L179.126 79.3227C179.104 79.5425 179.039 79.7558 178.934 79.9502C178.829 80.1445 178.687 80.3161 178.515 80.4547C178.091 80.6678 177.618 80.7617 177.145 80.7264H175.04C174.638 80.6916 174.237 80.7999 173.908 81.032C173.6 81.3387 173.398 81.7351 173.33 82.164L169.595 95.68C169.595 95.8045 169.595 95.8951 169.538 95.9517C169.534 96.0082 169.534 96.0649 169.538 96.1215C169.534 96.282 169.568 96.4412 169.639 96.5852C169.71 96.7293 169.816 96.8537 169.946 96.9478C170.278 97.179 170.673 97.3052 171.078 97.3101L170.908 98.0006H164.818C164.455 98.014 164.1 97.8931 163.822 97.661C163.694 97.5649 163.59 97.4401 163.519 97.2965C163.448 97.1529 163.412 96.9947 163.414 96.8346C163.414 96.7214 163.414 96.6082 163.414 96.4837C163.429 96.3412 163.46 96.2008 163.505 96.0649L167.625 80.7151H165.361L166.199 77.9191C166.943 77.8938 167.656 77.6099 168.214 77.1161C168.771 76.6223 169.14 75.9496 169.255 75.2136C169.368 74.8061 169.459 74.4665 169.538 74.2288C169.83 73.2867 170.453 72.4823 171.293 71.9648C172.32 71.3596 173.497 71.0538 174.689 71.0818Z" fill="#C02128"/>
<path d="M177.372 92.9633C177.39 92.4579 177.447 91.9546 177.541 91.4577C177.666 90.7785 177.836 89.9182 178.073 88.8881C178.506 87.0219 179.054 85.1845 179.715 83.3866C180.085 82.2307 180.631 81.1387 181.334 80.1492C182.261 79.0078 183.46 78.1167 184.82 77.5569C186.547 76.9942 188.36 76.7413 190.174 76.8098C192.571 76.6884 194.962 77.1425 197.147 78.1342C197.888 78.4476 198.521 78.9721 198.966 79.6424C199.411 80.3128 199.648 81.0992 199.649 81.9037C199.646 82.6864 199.571 83.4671 199.423 84.2356C199.276 85.0846 198.981 86.2845 198.562 87.8467C198.071 89.9407 197.354 91.9751 196.423 93.9142C195.666 95.3675 194.453 96.5326 192.97 97.2309C190.886 97.9799 188.673 98.3069 186.461 98.1931C184.154 98.3122 181.854 97.8367 179.783 96.8121C179.059 96.4625 178.449 95.9159 178.023 95.235C177.596 94.5542 177.37 93.7667 177.372 92.9633ZM193.367 83.3866C193.388 83.0138 193.321 82.6412 193.172 82.299C193.022 81.9568 192.794 81.6547 192.506 81.417C191.801 80.9085 190.941 80.6604 190.073 80.7152C189.136 80.6722 188.212 80.9431 187.446 81.4849C186.658 82.188 186.075 83.0917 185.76 84.0998C185.205 85.5842 184.725 87.0954 184.322 88.6278C184.047 89.5738 183.865 90.5444 183.779 91.5257C183.762 91.9122 183.835 92.2974 183.992 92.6509C184.149 93.0045 184.386 93.3168 184.684 93.5632C185.432 94.055 186.308 94.3171 187.203 94.3171C188.098 94.3171 188.974 94.055 189.722 93.5632C190.492 92.8535 191.065 91.9566 191.386 90.9597C191.974 89.3409 192.518 87.8241 192.823 86.4317C193.114 85.4394 193.297 84.4184 193.367 83.3866Z" fill="#C02128"/>
</g>
<defs>
<clipPath id="clip0_97_29">
<rect width="200" height="113.199" fill="white" transform="translate(0 0.400391)"/>
</clipPath>
</defs>
</svg>
