<svg width="40" height="41" viewBox="0 0 40 41" fill="none" xmlns="http://www.w3.org/2000/svg">
<path fill-rule="evenodd" clip-rule="evenodd" d="M20 35.9614C21.9698 35.9614 23.9204 35.5734 25.7403 34.8196C27.5601 34.0658 29.2137 32.9609 30.6066 31.568C31.9995 30.1751 33.1044 28.5216 33.8582 26.7017C34.612 24.8818 35 22.9313 35 20.9614C35 18.9916 34.612 17.0411 33.8582 15.2212C33.1044 13.4013 31.9995 11.7477 30.6066 10.3548C29.2137 8.96194 27.5601 7.85705 25.7403 7.10323C23.9204 6.34941 21.9698 5.96143 20 5.96143C16.0218 5.96143 12.2064 7.54178 9.3934 10.3548C6.58035 13.1679 5 16.9832 5 20.9614C5 24.9397 6.58035 28.755 9.3934 31.568C12.2064 34.3811 16.0218 35.9614 20 35.9614ZM19.6133 27.0281L27.9467 17.0281L25.3867 14.8948L18.22 23.4931L14.5117 19.7831L12.155 22.1398L17.155 27.1398L18.445 28.4298L19.6133 27.0281Z" fill="#00AA36"/>
</svg>
