<svg width="100" height="101" viewBox="0 0 100 101" fill="none" xmlns="http://www.w3.org/2000/svg">
<path d="M36.8648 90.2928C37.0244 90.4456 37.226 90.5382 37.439 90.5565C37.652 90.5748 37.8647 90.5178 38.0449 90.3942C38.225 90.2706 38.3626 90.0871 38.4368 89.8717C38.5111 89.6562 38.5178 89.4206 38.4561 89.2007L25.8461 42.7303C25.7318 42.3074 25.4998 41.9323 25.1814 41.6553C24.8629 41.3784 24.4733 41.2128 24.0647 41.1809C22.0231 41.0195 19.9865 40.842 17.9499 40.6429L1.08667 38.9913C0.90839 38.9727 0.728749 39.0064 0.566854 39.0888C0.40496 39.1712 0.26687 39.2992 0.167276 39.4593C0.0676823 39.6193 0.0103105 39.8054 0.00126454 39.9977C-0.00778141 40.1901 0.0318366 40.3814 0.115904 40.5515C9.23808 58.8965 22.3734 76.3807 36.8648 90.2928ZM49.2345 100.116C49.3346 100.493 49.6348 100.773 50.0001 100.773C50.1766 100.767 50.3467 100.7 50.4847 100.582C50.6228 100.463 50.7214 100.3 50.7657 100.116L66.1979 43.236C66.2438 43.0708 66.2521 42.8963 66.2222 42.7269C66.1922 42.5576 66.1249 42.3985 66.0258 42.263C65.9268 42.1275 65.7989 42.0195 65.6529 41.9483C65.5069 41.877 65.3472 41.8444 65.1871 41.8534C55.0671 42.3202 44.9332 42.3202 34.8132 41.8534C34.6537 41.8447 34.4945 41.8773 34.3491 41.9483C34.2036 42.0192 34.0761 42.1266 33.9771 42.2615C33.8782 42.3963 33.8107 42.5546 33.7803 42.7232C33.7499 42.8918 33.7575 43.0658 33.8024 43.2306L49.2345 100.116ZM61.5442 89.2007C61.264 90.2229 62.3949 91.0029 63.1355 90.2928C77.6269 76.3753 90.7622 58.8965 99.8844 40.5515C99.9681 40.3818 100.008 40.191 99.9988 39.9992C99.9899 39.8074 99.933 39.6218 99.834 39.4619C99.7351 39.302 99.5977 39.1739 99.4366 39.0911C99.2755 39.0082 99.0965 38.9738 98.9186 38.9913L82.0553 40.6429C80.0137 40.842 77.9771 41.0195 75.9355 41.1809C75.527 41.2128 75.1373 41.3784 74.8189 41.6553C74.5005 41.9323 74.2685 42.3074 74.1541 42.7303L61.5442 89.2007ZM99.0437 30.8786C99.2182 30.8622 99.3856 30.7968 99.5292 30.6889C99.6728 30.5811 99.7876 30.4347 99.862 30.2642C99.9365 30.0938 99.968 29.9053 99.9535 29.7176C99.939 29.5299 99.8789 29.3497 99.7793 29.1948L83.5765 3.93678C82.886 2.86111 81.9629 1.98184 80.8864 1.37459C79.8099 0.767347 78.6123 0.45029 77.3967 0.450688H64.9369C64.7725 0.450686 64.6107 0.494192 64.4657 0.577363C64.3208 0.660534 64.1971 0.78081 64.1056 0.92757C64.0141 1.07433 63.9576 1.24306 63.9411 1.41885C63.9246 1.59463 63.9487 1.77208 64.0111 1.9355L75.305 31.648C75.4655 32.0682 75.7455 32.4232 76.1051 32.6619C76.4646 32.9005 76.8852 33.0108 77.3066 32.9768C78.6577 32.8638 80.0187 32.74 81.3748 32.6002L99.0437 30.8786ZM55.8297 1.77411C55.6774 1.38145 55.4202 1.04616 55.0906 0.810606C54.7611 0.57505 54.374 0.449802 53.9783 0.450688H46.022C45.6263 0.449802 45.2392 0.57505 44.9096 0.810606C44.5801 1.04616 44.3229 1.38145 44.1705 1.77411L32.3713 32.2128C32.3102 32.3721 32.2856 32.5448 32.2995 32.7165C32.3134 32.8881 32.3655 33.0537 32.4513 33.1992C32.5371 33.3447 32.6542 33.4659 32.7926 33.5527C32.9311 33.6394 33.0869 33.6891 33.247 33.6976C44.4057 34.2787 55.5945 34.2787 66.7583 33.6976C66.9179 33.6883 67.0732 33.638 67.211 33.5509C67.3488 33.4638 67.4652 33.3425 67.5505 33.1971C67.6357 33.0517 67.6874 32.8865 67.701 32.7152C67.7147 32.544 67.69 32.3717 67.629 32.2128L55.8297 1.77411ZM35.9891 1.9355C36.0516 1.77208 36.0756 1.59463 36.0592 1.41885C36.0427 1.24306 35.9862 1.07433 35.8947 0.92757C35.8032 0.78081 35.6795 0.660534 35.5345 0.577363C35.3895 0.494192 35.2277 0.450686 35.0634 0.450688H22.6036C21.3879 0.45029 20.1904 0.767347 19.1139 1.37459C18.0374 1.98184 17.1142 2.86111 16.4237 3.93678L0.220987 29.1948C0.121352 29.3497 0.0612702 29.5299 0.0467477 29.7176C0.0322252 29.9053 0.0637703 30.0938 0.13823 30.2642C0.212691 30.4347 0.327458 30.5811 0.471062 30.6889C0.614667 30.7968 0.782077 30.8622 0.956565 30.8786L18.6255 32.6002C19.9815 32.74 21.3376 32.8638 22.6937 32.9768C23.1152 33.0116 23.5361 32.9017 23.8958 32.6629C24.2555 32.4241 24.5354 32.0687 24.6952 31.648L35.9891 1.9355Z" fill="#00AA36"/>
</svg>
