<svg width="50" height="50" viewBox="0 0 50 50" fill="none" xmlns="http://www.w3.org/2000/svg">
<g clip-path="url(#clip0_86_53)">
<path fill-rule="evenodd" clip-rule="evenodd" d="M25 4.16675C24.4475 4.16675 23.9176 4.38624 23.5269 4.77694C23.1362 5.16764 22.9167 5.69755 22.9167 6.25008V10.4167H10.4167C9.3116 10.4167 8.25179 10.8557 7.47039 11.6371C6.68899 12.4185 6.25 13.4783 6.25 14.5834V41.6667C6.25 42.7718 6.68899 43.8316 7.47039 44.613C8.25179 45.3944 9.3116 45.8334 10.4167 45.8334H39.5833C40.6884 45.8334 41.7482 45.3944 42.5296 44.613C43.311 43.8316 43.75 42.7718 43.75 41.6667V14.5834C43.75 13.4783 43.311 12.4185 42.5296 11.6371C41.7482 10.8557 40.6884 10.4167 39.5833 10.4167H27.0833V6.25008C27.0833 5.69755 26.8638 5.16764 26.4731 4.77694C26.0824 4.38624 25.5525 4.16675 25 4.16675ZM27.0833 10.4167V28.8084L30.8917 25.0001C31.2823 24.6092 31.8122 24.3894 32.3649 24.3892C32.9175 24.389 33.4476 24.6084 33.8385 24.999C34.2295 25.3897 34.4492 25.9196 34.4494 26.4723C34.4496 27.0249 34.2302 27.555 33.8396 27.9459L26.8396 34.9438C26.3513 35.4317 25.6892 35.7058 24.999 35.7058C24.3087 35.7058 23.6466 35.4317 23.1583 34.9438L16.1604 27.9459C15.967 27.7523 15.8136 27.5226 15.709 27.2697C15.6043 27.0169 15.5505 26.7459 15.5506 26.4723C15.5507 26.1986 15.6047 25.9277 15.7095 25.6749C15.8143 25.4221 15.9679 25.1925 16.1615 24.999C16.355 24.8056 16.5848 24.6522 16.8376 24.5476C17.0905 24.4429 17.3615 24.3891 17.6351 24.3892C17.9088 24.3893 18.1797 24.4433 18.4325 24.5481C18.6852 24.6529 18.9149 24.8065 19.1083 25.0001L22.9167 28.8084V10.4167H27.0833Z" fill="#00AA36"/>
</g>
<defs>
<clipPath id="clip0_86_53">
<rect width="50" height="50" fill="white"/>
</clipPath>
</defs>
</svg>
