<svg width="120" height="89" viewBox="0 0 120 89" fill="none" xmlns="http://www.w3.org/2000/svg">
<path d="M60 27.065C55.6601 27.065 51.4979 28.9185 48.4292 32.2178C45.3604 35.5171 43.6364 39.9918 43.6364 44.6577C43.6364 49.3236 45.3604 53.7983 48.4292 57.0976C51.4979 60.3969 55.6601 62.2504 60 62.2504C64.3399 62.2504 68.5021 60.3969 71.5708 57.0976C74.6396 53.7983 76.3636 49.3236 76.3636 44.6577C76.3636 39.9918 74.6396 35.5171 71.5708 32.2178C68.5021 28.9185 64.3399 27.065 60 27.065ZM60 73.9788C52.7668 73.9788 45.8299 70.8896 40.7153 65.3908C35.6006 59.8921 32.7273 52.4341 32.7273 44.6577C32.7273 36.8812 35.6006 29.4233 40.7153 23.9245C45.8299 18.4258 52.7668 15.3366 60 15.3366C67.2332 15.3366 74.1701 18.4258 79.2847 23.9245C84.3994 29.4233 87.2727 36.8812 87.2727 44.6577C87.2727 52.4341 84.3994 59.8921 79.2847 65.3908C74.1701 70.8896 67.2332 73.9788 60 73.9788ZM60 0.676025C32.7273 0.676025 9.43636 18.9138 0 44.6577C9.43636 70.4016 32.7273 88.6394 60 88.6394C87.2727 88.6394 110.564 70.4016 120 44.6577C110.564 18.9138 87.2727 0.676025 60 0.676025Z" fill="#00AA36"/>
</svg>
