<svg width="55" height="55" viewBox="0 0 55 55" fill="none" xmlns="http://www.w3.org/2000/svg">
<g clip-path="url(#clip0_152_246)">
<path fill-rule="evenodd" clip-rule="evenodd" d="M9.16683 27.5002C9.16716 23.972 10.1855 20.5189 12.0997 17.5552C14.0138 14.5915 16.7425 12.243 19.9583 10.7917C23.1741 9.34027 26.7403 8.84761 30.2292 9.37279C33.718 9.89797 36.9812 11.4187 39.6272 13.7524C42.2732 16.0862 44.1895 19.1339 45.1464 22.5298C46.1032 25.9257 46.0599 29.5256 45.0215 32.8974C43.9832 36.2693 41.994 39.27 39.2926 41.5393C36.5911 43.8087 33.2923 45.2504 29.7918 45.6914V32.0835H34.3752C34.9829 32.0835 35.5658 31.8421 35.9956 31.4123C36.4254 30.9825 36.6668 30.3996 36.6668 29.7918C36.6668 29.184 36.4254 28.6011 35.9956 28.1714C35.5658 27.7416 34.9829 27.5002 34.3752 27.5002H29.7918V22.9168C29.7918 22.309 30.0333 21.7261 30.463 21.2964C30.8928 20.8666 31.4757 20.6252 32.0835 20.6252H33.2293C33.8371 20.6252 34.42 20.3837 34.8498 19.9539C35.2796 19.5242 35.521 18.9413 35.521 18.3335C35.521 17.7257 35.2796 17.1428 34.8498 16.713C34.42 16.2833 33.8371 16.0418 33.2293 16.0418H32.0835C30.2601 16.0418 28.5114 16.7662 27.2221 18.0555C25.9328 19.3448 25.2085 21.0935 25.2085 22.9168V27.5002H20.6252C20.0174 27.5002 19.4345 27.7416 19.0047 28.1714C18.5749 28.6011 18.3335 29.184 18.3335 29.7918C18.3335 30.3996 18.5749 30.9825 19.0047 31.4123C19.4345 31.8421 20.0174 32.0835 20.6252 32.0835H25.2085V45.6914C20.778 45.1327 16.7037 42.9764 13.7502 39.6271C10.7966 36.2778 9.1669 31.9657 9.16683 27.5002ZM27.5002 50.4168C40.157 50.4168 50.4168 40.157 50.4168 27.5002C50.4168 14.8433 40.157 4.5835 27.5002 4.5835C14.8433 4.5835 4.5835 14.8433 4.5835 27.5002C4.5835 40.157 14.8433 50.4168 27.5002 50.4168Z" fill="#D2D2D2"/>
</g>
<defs>
<clipPath id="clip0_152_246">
<rect width="55" height="55" fill="white"/>
</clipPath>
</defs>
</svg>
