<svg width="80" height="80" viewBox="0 0 80 80" fill="none" xmlns="http://www.w3.org/2000/svg">
<path fill-rule="evenodd" clip-rule="evenodd" d="M46.6665 73.3334H33.3332C20.7632 73.3334 14.4765 73.3334 10.5732 69.4267C6.6665 65.5233 6.6665 59.2367 6.6665 46.6667V33.3334C6.6665 20.7634 6.6665 14.4767 10.5732 10.5734C14.4765 6.66669 20.7965 6.66669 33.4332 6.66669C35.4532 6.66669 37.0698 6.66669 38.4332 6.72335C38.3898 6.99002 38.3665 7.26002 38.3665 7.53669L38.3332 16.9834C38.3332 20.64 38.3332 23.8734 38.6832 26.4767C39.0632 29.3 39.9332 32.1234 42.2398 34.43C44.5398 36.73 47.3665 37.6034 50.1898 37.9834C52.7932 38.3334 56.0265 38.3334 59.6832 38.3334H73.1898C73.3332 40.1134 73.3332 42.3 73.3332 45.21V46.6667C73.3332 59.2367 73.3332 65.5233 69.4265 69.4267C65.5232 73.3334 59.2365 73.3334 46.6665 73.3334Z" fill="#00AA36"/>
<path d="M64.5068 25.39L51.3068 13.5133C47.5502 10.13 45.6735 8.43668 43.3635 7.55334L43.3335 16.6667C43.3335 24.5233 43.3335 28.4533 45.7735 30.8933C48.2135 33.3333 52.1435 33.3333 60.0002 33.3333H71.9335C70.7268 30.9867 68.5602 29.04 64.5068 25.39Z" fill="#00AA36"/>
</svg>
