<svg width="81" height="80" viewBox="0 0 81 80" fill="none" xmlns="http://www.w3.org/2000/svg">
<path d="M36 5C33.5109 5 31.5 7.23438 31.5 10V25.9219C31.5 26.7969 30.8672 27.5 30.0797 27.5C29.5734 27.5 29.0953 27.2031 28.8422 26.7031L22.0922 13.5938C11.6719 19.2969 4.5 31.2188 4.5 45V55H76.5V44.625C76.3734 31 69.2297 19.25 58.9078 13.5938L52.1578 26.7031C51.9047 27.2031 51.4266 27.5 50.9203 27.5C50.1328 27.5 49.5 26.7969 49.5 25.9219V10C49.5 7.23438 47.4891 5 45 5H36ZM2.33438 60C1.04063 60 0 61.1562 0 62.5938C0 63.3281 0.28125 64.0312 0.815625 64.4531C3.86719 66.9375 15.7219 75 40.5 75C65.2781 75 77.1328 66.9375 80.1844 64.4531C80.7188 64.0156 81 63.3281 81 62.5938C81 61.1562 79.9594 60 78.6656 60H2.33438Z" fill="#00AA36"/>
</svg>
