<svg width="66" height="80" viewBox="0 0 66 80" fill="none" xmlns="http://www.w3.org/2000/svg">
<path d="M2.74132 79.075V74.7H11.1755V57.62H0.54834V39.28H11.1755V22.2H2.74132V17.825H11.6975C12.7384 12.7791 15.2384 8.59953 19.1975 5.2862C23.1624 1.9787 27.7983 0.324951 33.1054 0.324951C38.4124 0.324951 43.0469 1.98016 47.0089 5.29058C50.9709 8.60099 53.4709 12.7791 54.5089 17.825H63.4694V22.2H55.0352V39.28H65.6624V57.62H55.0352V74.7H63.4694V79.075H2.74132ZM33.101 61.7412C36.7823 61.7412 39.9241 60.4433 42.5264 57.8475C45.1287 55.2545 46.4299 52.1235 46.4299 48.4543C46.4299 44.7852 45.1287 41.6512 42.5264 39.0525C39.927 36.4566 36.7881 35.1587 33.1097 35.1587C29.4314 35.1587 26.2896 36.4566 23.6843 39.0525C21.082 41.6454 19.7808 44.7764 19.7808 48.4456C19.7808 52.1147 21.082 55.2487 23.6843 57.8475C26.2837 60.4433 29.4226 61.7412 33.101 61.7412ZM33.0834 57.3662C30.598 57.3662 28.4899 56.497 26.7589 54.7587C25.0279 53.0233 24.1624 50.9131 24.1624 48.4281C24.1624 45.9431 25.0337 43.8402 26.7764 42.1193C28.5191 40.3927 30.6346 39.5293 33.1229 39.5293C35.6112 39.5293 37.7208 40.3985 39.4518 42.1368C41.1828 43.8752 42.0483 45.9854 42.0483 48.4674C42.0483 50.9495 41.177 53.0539 39.4343 54.7806C37.6916 56.5072 35.5761 57.3706 33.0878 57.3706" fill="#00AA36"/>
</svg>
