<svg width="52" height="52" viewBox="0 0 52 52" fill="none" xmlns="http://www.w3.org/2000/svg">
<path d="M16.8997 4.3335H35.0997C42.033 4.3335 47.6663 9.96683 47.6663 16.9002V35.1002C47.6663 38.433 46.3424 41.6294 43.9856 43.9861C41.6289 46.3428 38.4326 47.6668 35.0997 47.6668H16.8997C9.96634 47.6668 4.33301 42.0335 4.33301 35.1002V16.9002C4.33301 13.5673 5.65699 10.3709 8.0137 8.01419C10.3704 5.65748 13.5668 4.3335 16.8997 4.3335ZM16.4663 8.66683C14.3977 8.66683 12.4137 9.48861 10.9509 10.9514C9.48812 12.4142 8.66634 14.3981 8.66634 16.4668V35.5335C8.66634 39.8452 12.1547 43.3335 16.4663 43.3335H35.533C37.6017 43.3335 39.5857 42.5117 41.0484 41.0489C42.5112 39.5861 43.333 37.6022 43.333 35.5335V16.4668C43.333 12.1552 39.8447 8.66683 35.533 8.66683H16.4663ZM37.3747 11.9168C38.093 11.9168 38.7818 12.2022 39.2898 12.7101C39.7977 13.218 40.083 13.9069 40.083 14.6252C40.083 15.3435 39.7977 16.0323 39.2898 16.5402C38.7818 17.0482 38.093 17.3335 37.3747 17.3335C36.6564 17.3335 35.9675 17.0482 35.4596 16.5402C34.9517 16.0323 34.6663 15.3435 34.6663 14.6252C34.6663 13.9069 34.9517 13.218 35.4596 12.7101C35.9675 12.2022 36.6564 11.9168 37.3747 11.9168ZM25.9997 15.1668C28.8729 15.1668 31.6284 16.3082 33.66 18.3398C35.6916 20.3715 36.833 23.127 36.833 26.0002C36.833 28.8733 35.6916 31.6288 33.66 33.6605C31.6284 35.6921 28.8729 36.8335 25.9997 36.8335C23.1265 36.8335 20.371 35.6921 18.3393 33.6605C16.3077 31.6288 15.1663 28.8733 15.1663 26.0002C15.1663 23.127 16.3077 20.3715 18.3393 18.3398C20.371 16.3082 23.1265 15.1668 25.9997 15.1668ZM25.9997 19.5002C24.2758 19.5002 22.6225 20.185 21.4035 21.404C20.1845 22.623 19.4997 24.2763 19.4997 26.0002C19.4997 27.7241 20.1845 29.3774 21.4035 30.5964C22.6225 31.8153 24.2758 32.5002 25.9997 32.5002C27.7236 32.5002 29.3769 31.8153 30.5959 30.5964C31.8149 29.3774 32.4997 27.7241 32.4997 26.0002C32.4997 24.2763 31.8149 22.623 30.5959 21.404C29.3769 20.185 27.7236 19.5002 25.9997 19.5002Z" fill="#D2D2D2"/>
</svg>
