<svg viewBox="0 0 440 440" fill="none" xmlns="http://www.w3.org/2000/svg">
<path d="M412.5 151.25C412.5 167.501 409.299 183.593 403.08 198.607C396.861 213.621 387.746 227.263 376.254 238.754C364.763 250.246 351.121 259.361 336.107 265.58C321.093 271.799 305.001 275 288.75 275C272.499 275 256.407 271.799 241.393 265.58C226.379 259.361 212.737 250.246 201.246 238.754C189.754 227.263 180.639 213.621 174.42 198.607C168.201 183.593 165 167.501 165 151.25C165 118.429 178.038 86.9532 201.246 63.7455C224.453 40.5379 255.929 27.5 288.75 27.5C321.571 27.5 353.047 40.5379 376.254 63.7455C399.462 86.9532 412.5 118.429 412.5 151.25ZM288.75 82.5C285.103 82.5 281.606 83.9487 279.027 86.5273C276.449 89.1059 275 92.6033 275 96.25V151.25C275 154.897 276.449 158.394 279.027 160.973C281.606 163.551 285.103 165 288.75 165H330C333.647 165 337.144 163.551 339.723 160.973C342.301 158.394 343.75 154.897 343.75 151.25C343.75 147.603 342.301 144.106 339.723 141.527C337.144 138.949 333.647 137.5 330 137.5H302.5V96.25C302.5 92.6033 301.051 89.1059 298.473 86.5273C295.894 83.9487 292.397 82.5 288.75 82.5ZM288.75 302.5C313.5 302.5 336.875 296.56 357.5 286V357.5C357.5 372.087 351.705 386.076 341.391 396.391C331.076 406.705 317.087 412.5 302.5 412.5H82.5C67.9131 412.5 53.9236 406.705 43.6091 396.391C33.2946 386.076 27.5 372.087 27.5 357.5V229.268L185.982 314.6C187.986 315.678 190.225 316.243 192.5 316.243C194.775 316.243 197.014 315.678 199.018 314.6L237.82 293.7C253.742 299.393 270.875 302.5 288.75 302.5ZM82.5 137.5H138.105C135.574 165.157 140.706 192.978 152.94 217.911C165.174 242.844 184.036 263.928 207.46 278.85L192.5 286.852L27.5 198.028V192.5C27.5 177.913 33.2946 163.924 43.6091 153.609C53.9236 143.295 67.9131 137.5 82.5 137.5Z" fill="#00AA36"/>
</svg>
