<svg width="32" height="32" viewBox="0 0 32 32" fill="none" xmlns="http://www.w3.org/2000/svg">
<path d="M31.2313 24.3562C30.9527 26.4735 29.9129 28.4169 28.3061 29.8235C26.6994 31.2302 24.6355 32.0038 22.5 32C10.0938 32 1.41385e-05 21.9062 1.41385e-05 9.49999C-0.00381396 7.36451 0.769838 5.30065 2.17647 3.69389C3.58311 2.08713 5.52653 1.04734 7.64376 0.768739C8.17916 0.703365 8.72134 0.812898 9.18937 1.08099C9.6574 1.34907 10.0262 1.76134 10.2406 2.25624L13.5406 9.62343V9.64218C13.7048 10.021 13.7727 10.4346 13.738 10.846C13.7034 11.2575 13.5674 11.6539 13.3422 12C13.3141 12.0422 13.2844 12.0812 13.2531 12.1203L10 15.9766C11.1703 18.3547 13.6578 20.8203 16.0672 21.9937L19.8703 18.7578C19.9077 18.7264 19.9468 18.6972 19.9875 18.6703C20.3333 18.4397 20.7311 18.2989 21.145 18.2607C21.5588 18.2225 21.9757 18.2881 22.3578 18.4516L22.3781 18.4609L29.7391 21.7594C30.2348 21.9731 30.6481 22.3415 30.9171 22.8096C31.1861 23.2777 31.2963 23.8203 31.2313 24.3562Z" fill="#00AA36"/>
</svg>
