<svg width="100" height="118" viewBox="0 0 100 118" fill="none" xmlns="http://www.w3.org/2000/svg">
<path d="M50 0C54.48 0 58.82 0.634313 62.95 1.82231L52.32 13.2453C51.5136 14.1158 50.8023 15.0825 50.2 16.1266H50C43.0777 16.1266 36.3108 18.3335 30.555 22.4682C24.7993 26.6029 20.3133 32.4797 17.6642 39.3555C15.0151 46.2312 14.322 53.7971 15.6725 61.0964C17.023 68.3956 20.3564 75.1004 25.2513 80.3629C30.1461 85.6254 36.3825 89.2092 43.1718 90.6611C49.9612 92.113 56.9985 91.3678 63.3939 88.5198C69.7893 85.6718 75.2556 80.8488 79.1014 74.6608C82.9473 68.4728 85 61.1976 85 53.7554V53.5403C85.96 52.8953 86.86 52.1373 87.675 51.2557L98.305 39.8327C99.41 44.2729 100 48.9389 100 53.7554C100 83.4445 77.615 107.511 50 107.511C22.385 107.511 0 83.4445 0 53.7554C0 24.0663 22.385 0 50 0ZM47.93 26.9691C47.93 31.5436 47.72 36.1827 47.95 40.7519L45.25 43.6547C44.3212 44.6533 43.5845 45.8387 43.0818 47.1433C42.5792 48.448 42.3205 49.8463 42.3205 51.2584C42.3205 52.6706 42.5792 54.0689 43.0818 55.3735C43.5845 56.6782 44.3212 57.8636 45.25 58.8621C46.1788 59.8607 47.2814 60.6527 48.4949 61.1931C49.7084 61.7335 51.009 62.0117 52.3225 62.0117C53.636 62.0117 54.9366 61.7335 56.1501 61.1931C57.3636 60.6527 58.4662 59.8607 59.395 58.8621L62.095 55.9593C66.345 56.2066 70.655 55.9808 74.915 55.9808C74.52 61.0894 72.7744 65.97 69.8841 70.0471C66.9938 74.1241 63.0793 77.2274 58.6023 78.9911C54.1253 80.7549 49.2726 81.1053 44.6164 80.0012C39.9602 78.8971 35.6948 76.3845 32.3232 72.7598C28.9517 69.135 26.6146 64.5492 25.5877 59.5433C24.5607 54.5374 24.8867 49.3202 26.5272 44.507C28.1677 39.6937 31.0542 35.4852 34.8464 32.3778C38.6386 29.2704 43.1783 27.3937 47.93 26.9691ZM82.52 0.682694C83.4326 1.08951 84.2127 1.77789 84.7618 2.66094C85.3108 3.54399 85.6043 4.58213 85.605 5.64431V15.4815H94.75C95.7388 15.4818 96.7052 15.7972 97.5273 16.3879C98.3493 16.9785 98.99 17.818 99.3684 18.8001C99.7467 19.7822 99.8458 20.8629 99.6529 21.9055C99.4601 22.9481 98.984 23.9058 98.285 24.6576L80.6 43.6494C79.6625 44.6575 78.391 45.2241 77.065 45.2244H65L55.86 55.0562C54.9218 56.0649 53.6493 56.6316 52.3225 56.6316C50.9957 56.6316 49.7232 56.0649 48.785 55.0562C47.8468 54.0476 47.3197 52.6795 47.3197 51.2531C47.3197 49.8266 47.8468 48.4585 48.785 47.4499L57.93 37.6288V24.6522C57.9295 23.9454 58.0586 23.2455 58.31 22.5924C58.5614 21.9394 58.9301 21.346 59.395 20.8463L77.07 1.84381C77.7692 1.0916 78.6603 0.579259 79.6304 0.371618C80.6005 0.163977 81.6061 0.270363 82.52 0.677317" fill="#00AA36"/>
</svg>
