<svg width="80" height="80" viewBox="0 0 80 80" fill="none" xmlns="http://www.w3.org/2000/svg">
<path d="M78.3599 63.44L48.0279 7.696C46.0599 4.044 43.1159 2 39.9559 2C36.7959 2 33.8959 4.084 31.8919 7.736L1.6359 63.444C-0.324098 67.048 -0.540098 70.744 1.0839 73.564C2.7039 76.392 5.9479 78 9.9599 78H70.0399C74.0519 78 77.2959 76.392 78.9199 73.568C80.5399 70.744 80.3239 67.092 78.3599 63.444M39.9999 19.428C41.5799 19.428 42.8599 20.732 42.8599 22.34V48.672C42.8599 50.28 41.5799 51.584 39.9999 51.584C39.6208 51.5809 39.2461 51.503 38.8971 51.3549C38.5482 51.2068 38.2318 50.9914 37.9662 50.7209C37.7006 50.4505 37.4908 50.1303 37.3491 49.7787C37.2073 49.4272 37.1362 49.0511 37.1399 48.672V22.336C37.1399 20.772 38.4199 19.428 39.9999 19.428ZM39.9999 65.92C37.5239 65.92 35.5599 63.88 35.5599 61.36C35.5599 58.84 37.5679 56.796 39.9999 56.796C42.4759 56.796 44.4399 58.836 44.4399 61.356C44.4399 63.876 42.4319 65.92 39.9999 65.92Z" fill="#00AA36"/>
</svg>
