<svg width="55" height="55" viewBox="0 0 55 55" fill="none" xmlns="http://www.w3.org/2000/svg">
<path d="M43.6561 11.2519C41.5551 9.12964 39.0525 7.44697 36.2944 6.30201C33.5363 5.15706 30.5778 4.57274 27.5915 4.58314C15.079 4.58314 4.88109 14.7811 4.88109 27.2936C4.88109 31.304 5.93525 35.1998 7.90609 38.6373L4.69775 50.4165L16.729 47.254C20.0519 49.0644 23.7873 50.0269 27.5915 50.0269C40.104 50.0269 50.3019 39.829 50.3019 27.3165C50.3019 21.2436 47.9415 15.5373 43.6561 11.2519ZM27.5915 46.1769C24.1998 46.1769 20.8769 45.2602 17.9665 43.5415L17.279 43.129L10.129 45.0081L12.0311 38.0415L11.5728 37.3311C9.68842 34.322 8.68787 30.8439 8.68525 27.2936C8.68525 16.8894 17.1644 8.41023 27.5686 8.41023C32.6103 8.41023 37.354 10.3811 40.9061 13.9561C42.6649 15.7068 44.0587 17.7892 45.0068 20.0827C45.9548 22.3761 46.4382 24.8349 46.429 27.3165C46.4748 37.7206 37.9957 46.1769 27.5915 46.1769ZM37.9498 32.0602C37.3769 31.7852 34.5811 30.4102 34.0769 30.204C33.5498 30.0206 33.1832 29.929 32.7936 30.479C32.404 31.0519 31.3269 32.3352 31.0061 32.7019C30.6853 33.0915 30.3415 33.1373 29.7686 32.8394C29.1957 32.5644 27.3623 31.9456 25.2082 30.0206C23.5123 28.5081 22.3894 26.6519 22.0457 26.079C21.7248 25.5061 21.9998 25.2081 22.2978 24.9102C22.5498 24.6581 22.8707 24.2456 23.1457 23.9248C23.4207 23.604 23.5353 23.3519 23.7186 22.9852C23.9019 22.5956 23.8103 22.2748 23.6728 21.9998C23.5353 21.7248 22.3894 18.929 21.9311 17.7831C21.4728 16.6831 20.9915 16.8206 20.6478 16.7977H19.5478C19.1582 16.7977 18.5623 16.9352 18.0353 17.5081C17.5311 18.0811 16.0644 19.4561 16.0644 22.2519C16.0644 25.0477 18.104 27.7519 18.379 28.1186C18.654 28.5081 22.3894 34.2373 28.0728 36.6894C29.4248 37.2852 30.479 37.629 31.304 37.8811C32.6561 38.3165 33.8936 38.2477 34.879 38.1102C35.979 37.9498 38.2477 36.7352 38.7061 35.4061C39.1873 34.0769 39.1873 32.954 39.0269 32.7019C38.8665 32.4498 38.5228 32.3352 37.9498 32.0602Z" fill="#D2D2D2"/>
</svg>
